<svg version="1.1" id="Layer_1" xmlns="http://www.w3.org/2000/svg" x="0" y="0" viewBox="0 0 111.93 34.77" enable-background="new 0 0 111.93 34.77" xml:space="preserve"><g><path fill="#76BD1C" d="M10.03,8.87c-2.23,0-3.99,0.87-5.34,2.7V3.02H0v23.55h4.57l0.04-2.1c1.14,1.75,2.82,2.56,5.02,2.56 c4.54,0,7.8-3.43,7.8-9.25C17.43,12.55,14.68,8.87,10.03,8.87z M8.53,23.3c-2.27,0-4.03-2.03-4.03-4.94c0-3.75,1.36-5.61,3.99-5.61 c2.78,0,4.1,1.79,4.1,5.33C12.59,21.17,10.91,23.3,8.53,23.3z"/><path fill="#76BD1C" d="M18.73 9.32H23.490000000000002V26.56H18.73z"/><path fill="#76BD1C" d="M18.73 3.02H23.490000000000002V7.26H18.73z"/><path fill="#FFF" d="M74.83,8.91H74.2c-1.94,0-3.77,0.21-5.35,2.53V9.37h-4.47v17.24h4.76v-8.97c0-2.77,1.43-4.17,4.36-4.17 c0.44,0,0.88,0.04,1.32,0.11V8.91z"/><path fill="#FFF" d="M87.63,11.51c-1.14-1.75-2.78-2.59-5.06-2.59c-4.36,0-7.87,3.61-7.87,8.97c0,4.52,2.05,8.87,7.99,8.87 c2.34,0,4.28-0.91,4.94-2.46v2.84c0,2.28-2.02,3.71-4.55,3.71c-2.38,0-3.95-1.23-3.95-3.29H74.7c0,4.45,3.7,7.22,8.72,7.22 c5.02,0,8.97-2.8,8.97-7.99V9.37h-4.76V11.51z M83.71,23.18c-2.34,0-4.06-1.96-4.06-5.05c0-3.54,1.39-5.26,4.06-5.26 c2.71,0,4.06,1.79,4.06,5.54C87.77,21.32,86.02,23.18,83.71,23.18z"/><path fill="#FFF" d="M102.78,8.91c-5.71,0-9.27,3.61-9.27,9.08c0,5.36,3.44,9.07,9.27,9.07c5.6,0,9.15-3.61,9.15-9.07 C111.93,12.49,108.42,8.91,102.78,8.91z M102.78,23.24c-2.89,0-4.36-1.75-4.36-5.25c0-3.51,1.46-5.22,4.36-5.22 c2.89,0,4.36,1.72,4.36,5.22C107.13,21.49,105.67,23.24,102.78,23.24z"/><g fill="#76BD1C"><path d="M39.6,11.3c-2.33-1.62-3.85-4.24-3.85-7.19c0-1.19,0.25-2.32,0.69-3.36c1.72,0.54,3.23,1.54,4.35,2.86 c0.42,0.49,0.78,1.03,1.08,1.6c0.64,1.2,1,2.56,1,4c0,1-0.18,1.96-0.5,2.85c-0.59-2.04-1.39-3.89-2.2-4.91 c-0.19-0.24-0.55-0.29-0.81-0.11c-0.25,0.19-0.3,0.53-0.11,0.77c0.63,0.8,1.52,3.01,1.97,4.39C40.66,11.96,40.11,11.65,39.6,11.3z"/><path d="M44.57,13c-0.39,0-0.78-0.03-1.15-0.07c0.58-1.48,3.3-3.69,6.1-4.43c0.31-0.08,0.49-0.38,0.41-0.68 c-0.09-0.29-0.4-0.47-0.71-0.38c-1.79,0.47-3.59,1.26-5.13,2.75c0.03-0.32,0.05-0.65,0.05-0.98c0-0.7-0.07-1.38-0.21-2.04 C45.71,5.25,48.54,3.98,51,4c0.32,0.01,0.58-0.24,0.59-0.55c0-0.31-0.25-0.55-0.57-0.56c-2.53-0.03-5.41,1.15-7.44,3.02 c-0.29-0.83-0.68-1.62-1.16-2.35c2.53-3.22,6.89-4.36,10.68-3.01c0.5,1.09,0.77,2.28,0.77,3.55C53.86,9.01,49.69,13,44.57,13z"/></g><path fill="#76BD1C" d="M36.37,9.77c-0.2-0.25-0.37-0.5-0.55-0.76c-0.58-0.09-1.19-0.14-1.83-0.14c-5.72,0-9.27,3.61-9.27,9.08 c0,5.36,3.44,9.08,9.27,9.08c5.6,0,9.15-3.61,9.15-9.08c0-1.61-0.31-3.05-0.87-4.29C39.85,13.07,37.77,11.67,36.37,9.77z M33.99,23.2c-2.89,0-4.36-1.75-4.36-5.26s1.47-5.22,4.36-5.22c2.89,0,4.36,1.72,4.36,5.22S36.88,23.2,33.99,23.2z"/><path fill="#FFF" d="M54.08,8.91c-0.08,0-0.15,0.01-0.23,0.01c-0.15,0.24-0.32,0.47-0.49,0.7c-1.72,2.42-4.53,4.07-7.76,4.3 c-0.51,1.19-0.8,2.55-0.8,4.06c0,5.36,3.44,9.07,9.27,9.07c5.6,0,9.15-3.61,9.15-9.07C63.23,12.49,59.72,8.91,54.08,8.91z M54.08,23.24c-2.89,0-4.36-1.75-4.36-5.25c0-3.51,1.47-5.22,4.36-5.22c2.89,0,4.36,1.72,4.36,5.22 C58.43,21.49,56.97,23.24,54.08,23.24z"/></g></svg>